<?xml version="1.0" standalone="no"?>
<!DOCTYPE svg PUBLIC "-//W3C//DTD SVG 20010904//EN"
 "http://www.w3.org/TR/2001/REC-SVG-20010904/DTD/svg10.dtd">
<svg version="1.0" xmlns="http://www.w3.org/2000/svg"
 width="847.000000pt" height="601.000000pt" viewBox="0 0 847.000000 601.000000"
 preserveAspectRatio="xMidYMid meet">

<g transform="translate(0.000000,601.000000) scale(0.100000,-0.100000)"
fill="#000000" stroke="none">
<path d="M0 3005 l0 -3005 4235 0 4235 0 0 3005 0 3005 -4235 0 -4235 0 0
-3005z m3600 2283 c0 -5 -16 -8 -35 -8 -19 0 -35 3 -35 8 0 4 16 7 35 7 19 0
35 -3 35 -7z m-565 -77 c-6 -5 -25 10 -25 20 0 5 6 4 14 -3 8 -7 12 -15 11
-17z m415 -31 c0 -5 -9 -10 -20 -10 -11 0 -20 5 -20 10 0 6 9 10 20 10 11 0
20 -4 20 -10z m-88 -12 c-9 -9 -15 -9 -24 0 -9 9 -7 12 12 12 19 0 21 -3 12
-12z m343 -28 c3 -6 -1 -7 -9 -4 -18 7 -21 14 -7 14 6 0 13 -4 16 -10z m520 0
c-255 -11 -425 -11 -425 0 0 6 103 9 293 8 269 -1 280 -2 132 -8z m200 -30
c16 -17 16 -20 3 -15 -9 4 -19 13 -22 21 -7 19 -2 18 19 -6z m545 -40 c12 -8
9 -10 -13 -10 -16 0 -26 4 -22 10 8 12 16 12 35 0z m-2335 -20 c3 -6 -1 -7 -9
-4 -18 7 -21 14 -7 14 6 0 13 -4 16 -10z m572 -26 c-3 -3 -12 -4 -19 -1 -8 3
-5 6 6 6 11 1 17 -2 13 -5z m993 -4 c0 -5 -7 -10 -15 -10 -8 0 -15 5 -15 10 0
6 7 10 15 10 8 0 15 -4 15 -10z m-780 -26 c0 -2 -14 -4 -31 -4 -16 0 -28 4
-25 9 5 8 56 3 56 -5z m-160 -4 c33 -1 34 -1 16 -15 -14 -10 -22 -12 -27 -4
-4 7 -66 11 -175 12 l-169 1 140 6 c77 3 149 5 160 3 11 -1 36 -3 55 -3z m156
-19 c-5 -8 -56 -3 -56 5 0 2 14 4 31 4 16 0 28 -4 25 -9z m264 6 c0 -2 -9 -12
-20 -22 -24 -21 -27 -14 -4 9 15 15 24 20 24 13z m-790 -31 c0 -2 -7 -7 -16
-10 -8 -3 -12 -2 -9 4 6 10 25 14 25 6z m1643 -23 c-7 -2 -21 -2 -30 0 -10 3
-4 5 12 5 17 0 24 -2 18 -5z m-920 -15 c-6 -10 -264 -10 -280 0 -6 4 56 7 137
7 81 0 146 -3 143 -7z m306 2 c46 0 82 -2 80 -5 -9 -8 -321 -7 -330 2 -4 4 31
7 79 6 48 -1 125 -3 171 -3z m481 -4 c0 -2 -8 -10 -17 -17 -16 -13 -17 -12 -4
4 13 16 21 21 21 13z m-1917 -13 c-7 -2 -21 -2 -30 0 -10 3 -4 5 12 5 17 0 24
-2 18 -5z m2387 -49 c0 -2 -21 -4 -46 -4 -25 0 -43 4 -40 8 4 7 86 4 86 -4z
m275 -4 c-3 -5 -21 -10 -40 -10 -19 0 -37 5 -40 10 -4 6 12 10 40 10 28 0 44
-4 40 -10z m-2770 -20 c3 -6 -1 -7 -9 -4 -18 7 -21 14 -7 14 6 0 13 -4 16 -10z
m215 -54 c0 -2 -7 -7 -16 -10 -8 -3 -12 -2 -9 4 6 10 25 14 25 6z m2538 -58
c-3 -7 -21 -14 -41 -16 -30 -3 -36 0 -31 12 8 20 78 23 72 4z m-2023 -7 c3 -5
-3 -12 -12 -14 -14 -4 -13 -5 5 -6 20 -1 33 -20 15 -22 -5 0 -15 -2 -24 -4 -9
-1 -23 1 -30 6 -12 7 -12 9 0 9 10 0 11 3 2 14 -9 11 -9 15 1 19 21 9 36 8 43
-2z m588 2 c-7 -2 -19 -2 -25 0 -7 3 -2 5 12 5 14 0 19 -2 13 -5z m390 0 c-7
-2 -19 -2 -25 0 -7 3 -2 5 12 5 14 0 19 -2 13 -5z m102 -23 c3 -5 1 -10 -4
-10 -6 0 -11 5 -11 10 0 6 2 10 4 10 3 0 8 -4 11 -10z m-1367 -7 c-26 -2 -71
-2 -100 0 -29 2 -8 3 47 3 55 0 79 -1 53 -3z m1822 -8 c0 -9 -9 -15 -25 -15
-16 0 -25 6 -25 15 0 9 9 15 25 15 16 0 25 -6 25 -15z m218 -9 c-7 -8 -15 -12
-17 -11 -5 6 10 25 20 25 5 0 4 -6 -3 -14z m662 -20 c0 -13 6 -27 13 -29 6 -3
2 -6 -10 -6 -27 -1 -36 13 -28 39 9 28 25 25 25 -4z m-2550 -6 c0 -5 -12 -11
-27 -11 l-28 -1 30 -8 c29 -7 29 -8 4 -9 -14 0 -34 8 -44 19 -18 20 -17 20 23
20 23 0 42 -4 42 -10z m1113 3 c-7 -2 -19 -2 -25 0 -7 3 -2 5 12 5 14 0 19 -2
13 -5z m167 -3 c0 -5 -5 -10 -11 -10 -5 0 -7 5 -4 10 3 6 8 10 11 10 2 0 4 -4
4 -10z m53 -7 c-7 -2 -21 -2 -30 0 -10 3 -4 5 12 5 17 0 24 -2 18 -5z m-1923
-17 c0 -2 -7 -7 -16 -10 -8 -3 -12 -2 -9 4 6 10 25 14 25 6z m3303 -3 c-7 -2
-19 -2 -25 0 -7 3 -2 5 12 5 14 0 19 -2 13 -5z m-1536 -19 c-3 -3 -12 -4 -19
-1 -8 3 -5 6 6 6 11 1 17 -2 13 -5z m-1952 -24 c-3 -5 -1 -10 5 -10 6 0 8 -5
4 -11 -4 -7 -10 -7 -16 -1 -9 9 -3 32 8 32 3 0 2 -4 -1 -10z m-131 -26 c3 -8
2 -12 -4 -9 -6 3 -10 10 -10 16 0 14 7 11 14 -7z m2416 -34 c0 -5 -10 -10 -22
-10 -19 0 -20 2 -8 10 19 13 30 13 30 0z m830 0 c0 -5 -7 -10 -15 -10 -8 0
-15 5 -15 10 0 6 7 10 15 10 8 0 15 -4 15 -10z m-2957 -47 c-7 -2 -21 -2 -30
0 -10 3 -4 5 12 5 17 0 24 -2 18 -5z m3308 -6 c-1 -4 -3 -7 -6 -7 -40 0 -40 0
-25 10 16 10 32 9 31 -3z m-1083 -4 c-10 -2 -26 -2 -35 0 -10 3 -2 5 17 5 19
0 27 -2 18 -5z m1009 1 c-3 -3 -12 -4 -19 -1 -8 3 -5 6 6 6 11 1 17 -2 13 -5z
m-712 -14 c3 -5 16 -10 28 -11 12 0 16 -3 9 -6 -6 -2 -9 -10 -6 -16 5 -8 2 -8
-7 1 -7 6 -22 12 -33 13 -13 0 -16 3 -7 6 11 5 11 7 0 14 -9 6 -10 9 -2 9 6 0
15 -4 18 -10z m-385 -10 c0 -5 -7 -10 -15 -10 -8 0 -15 5 -15 10 0 6 7 10 15
10 8 0 15 -4 15 -10z m-1520 -60 c0 -5 -6 -10 -14 -10 -8 0 -18 5 -21 10 -3 6
3 10 14 10 12 0 21 -4 21 -10z m900 -20 c0 -5 -4 -10 -10 -10 -5 0 -10 5 -10
10 0 6 5 10 10 10 6 0 10 -4 10 -10z m80 -6 c0 -8 -4 -12 -10 -9 -5 3 -10 10
-10 16 0 5 5 9 10 9 6 0 10 -7 10 -16z m-215 -84 c-3 -5 -22 -10 -41 -10 -19
0 -34 5 -34 10 0 6 18 10 41 10 24 0 38 -4 34 -10z m75 -6 c0 -2 -9 -4 -20 -4
-11 0 -20 4 -20 9 0 5 9 7 20 4 11 -3 20 -7 20 -9z m45 6 c3 -5 -1 -10 -9 -10
-9 0 -16 5 -16 10 0 6 4 10 9 10 6 0 13 -4 16 -10z m-1275 -25 c-13 -14 -33
-24 -44 -24 -20 2 -20 2 0 6 12 2 30 13 40 24 9 10 19 19 22 19 3 0 -5 -11
-18 -25z m-130 -21 c0 -2 -9 -4 -21 -4 -11 0 -18 4 -14 10 5 8 35 3 35 -6z
m2455 -4 c7 -12 -39 -24 -60 -16 -8 3 -15 10 -15 16 0 13 67 13 75 0z m48 -7
c-7 -2 -19 -2 -25 0 -7 3 -2 5 12 5 14 0 19 -2 13 -5z m-2396 -9 c-3 -3 -12
-4 -19 -1 -8 3 -5 6 6 6 11 1 17 -2 13 -5z m1253 -2 c0 -4 -9 -8 -20 -8 -11 0
-20 4 -20 8 0 4 9 8 20 8 11 0 20 -4 20 -8z m120 -2 c8 -5 11 -12 7 -16 -4 -4
-15 0 -24 9 -18 18 -8 23 17 7z m-1465 -60 c-3 -5 -12 -10 -18 -10 -7 0 -6 4
3 10 19 12 23 12 15 0z m2642 -6 c-3 -3 -12 -4 -19 -1 -8 3 -5 6 6 6 11 1 17
-2 13 -5z m-3217 -86 c0 -5 -8 -5 -39 1 -2 1 2 8 9 16 11 13 15 13 21 3 5 -7
9 -16 9 -20z m-80 2 c0 -5 -4 -10 -10 -10 -5 0 -10 5 -10 10 0 6 5 10 10 10 6
0 10 -4 10 -10z m192 -2 c-9 -9 -15 -9 -24 0 -9 9 -7 12 12 12 19 0 21 -3 12
-12z m2273 2 c-3 -5 -11 -10 -16 -10 -6 0 -7 5 -4 10 3 6 11 10 16 10 6 0 7
-4 4 -10z m492 -5 c0 -8 -9 -15 -21 -15 -20 0 -20 0 0 15 10 8 19 15 20 15 0
0 1 -7 1 -15z m-1512 -14 c3 -6 -10 -7 -32 -4 -50 8 -55 13 -10 13 20 0 38 -4
42 -9z m-442 -8 c-13 -2 -33 -2 -45 0 -13 2 -3 4 22 4 25 0 35 -2 23 -4z m655
0 c-38 -2 -98 -2 -135 0 -38 2 -7 3 67 3 74 0 105 -1 68 -3z m755 -24 c-8 -8
-16 -8 -30 0 -16 9 -14 10 12 11 21 0 26 -3 18 -11z m77 3 c0 -4 -9 -8 -20 -8
-11 0 -20 4 -20 8 0 4 9 8 20 8 11 0 20 -4 20 -8z m233 1 c-7 -2 -21 -2 -30 0
-10 3 -4 5 12 5 17 0 24 -2 18 -5z m-398 -43 c-3 -5 -18 -9 -33 -9 l-27 1 30
8 c17 4 31 8 33 9 2 0 0 -3 -3 -9z m70 0 c4 -6 -5 -10 -19 -10 -14 0 -26 5
-26 10 0 6 9 10 19 10 11 0 23 -4 26 -10z m165 0 c0 -5 -5 -10 -11 -10 -5 0
-7 5 -4 10 3 6 8 10 11 10 2 0 4 -4 4 -10z m-1940 -12 c0 -6 -3 -8 -6 -5 -4 3
-16 1 -28 -5 -19 -10 -20 -10 -7 5 16 19 41 23 41 5z m2953 5 c-7 -2 -19 -2
-25 0 -7 3 -2 5 12 5 14 0 19 -2 13 -5z m-630 -10 c-7 -2 -19 -2 -25 0 -7 3
-2 5 12 5 14 0 19 -2 13 -5z m-1235 -10 c-10 -2 -28 -2 -40 0 -13 2 -5 4 17 4
22 1 32 -1 23 -4z m-113 -23 c4 -7 -49 -9 -152 -8 l-158 2 115 6 c63 3 132 7
152 8 20 1 40 -2 43 -8z m380 -5 c6 -2 -68 -4 -162 -4 -97 -1 -173 3 -173 8 0
8 310 4 335 -4z m1285 0 c0 -9 -6 -12 -16 -8 -13 5 -13 7 -2 14 17 11 18 11
18 -6z m243 -12 c-7 -2 -19 -2 -25 0 -7 3 -2 5 12 5 14 0 19 -2 13 -5z m150 0
c-13 -2 -33 -2 -45 0 -13 2 -3 4 22 4 25 0 35 -2 23 -4z m-1038 -113 c8 -13
-5 -13 -25 0 -13 8 -13 10 2 10 9 0 20 -4 23 -10z m1077 -32 c-15 -15 -26 -4
-18 18 5 13 9 15 18 6 9 -9 9 -15 0 -24z m-3727 12 c-3 -5 -15 -10 -25 -10
-10 0 -22 5 -25 10 -4 6 7 10 25 10 18 0 29 -4 25 -10z m448 3 c-29 -2 -77 -2
-105 0 -29 2 -6 3 52 3 58 0 81 -1 53 -3z m825 0 c-10 -2 -28 -2 -40 0 -13 2
-5 4 17 4 22 1 32 -1 23 -4z m1867 -41 c-2 -2 -9 -1 -15 3 -6 4 -128 6 -271 5
-142 0 -259 3 -259 7 0 4 111 6 246 4 156 -2 250 1 256 7 7 7 16 5 29 -6 10
-9 17 -18 14 -20z m-2380 -22 c-3 -5 -13 -10 -21 -10 -8 0 -14 5 -14 10 0 6 9
10 21 10 11 0 17 -4 14 -10z m2426 -18 c-7 -2 -18 1 -23 6 -8 8 -4 9 13 5 13
-4 18 -8 10 -11z m-278 -49 c-7 -2 -19 -2 -25 0 -7 3 -2 5 12 5 14 0 19 -2 13
-5z m-473 -22 c0 -5 -7 -12 -16 -15 -21 -8 -229 -8 -221 0 3 4 51 6 106 5 60
-1 102 2 106 9 8 12 25 13 25 1z m35 -11 c-3 -5 -12 -10 -18 -10 -7 0 -6 4 3
10 19 12 23 12 15 0z m115 -15 c-7 -9 -16 -12 -19 -7 -3 5 -15 12 -26 15 -11
3 -3 5 19 6 34 1 37 -1 26 -14z m153 8 c-13 -2 -33 -2 -45 0 -13 2 -3 4 22 4
25 0 35 -2 23 -4z m97 -28 c10 -12 10 -15 -4 -15 -9 0 -16 7 -16 15 0 8 2 15
4 15 2 0 9 -7 16 -15z m-2943 -31 c-3 -3 -12 -4 -19 -1 -8 3 -5 6 6 6 11 1 17
-2 13 -5z m2468 -9 c0 -5 -10 -11 -22 -13 -16 -2 -23 2 -23 13 0 11 7 15 23
13 12 -2 22 -7 22 -13z m965 5 c0 -5 -16 -10 -35 -10 -19 0 -35 5 -35 10 0 6
16 10 35 10 19 0 35 -4 35 -10z m303 3 c-7 -2 -19 -2 -25 0 -7 3 -2 5 12 5 14
0 19 -2 13 -5z m2 -23 c-3 -5 -11 -10 -16 -10 -6 0 -7 5 -4 10 3 6 11 10 16
10 6 0 7 -4 4 -10z m380 -10 c4 -6 -7 -10 -24 -10 -17 0 -31 5 -31 10 0 6 11
10 24 10 14 0 28 -4 31 -10z m335 0 c0 -5 -7 -10 -16 -10 -8 0 -12 5 -9 10 3
6 10 10 16 10 5 0 9 -4 9 -10z m-702 -27 c-10 -2 -26 -2 -35 0 -10 3 -2 5 17
5 19 0 27 -2 18 -5z m-573 -13 c-3 -5 -12 -10 -18 -10 -7 0 -6 4 3 10 19 12
23 12 15 0z m-2322 -17 c-7 -2 -19 -2 -25 0 -7 3 -2 5 12 5 14 0 19 -2 13 -5z
m3207 -56 c0 -9 -12 -11 -40 -9 -22 2 -40 8 -40 13 0 5 18 9 40 9 26 0 40 -5
40 -13z m-3047 -14 c-7 -2 -21 -2 -30 0 -10 3 -4 5 12 5 17 0 24 -2 18 -5z
m3045 -31 c2 -7 -3 -12 -12 -12 -9 0 -16 7 -16 16 0 17 22 14 28 -4z m-1058
-22 c0 -5 -6 -10 -14 -10 -8 0 -18 5 -21 10 -3 6 3 10 14 10 12 0 21 -4 21
-10z m-2699 -87 c13 -17 13 -17 -6 -3 -11 8 -22 16 -24 17 -2 2 0 3 6 3 6 0
17 -8 24 -17z m312 0 c-7 -2 -19 -2 -25 0 -7 3 -2 5 12 5 14 0 19 -2 13 -5z
m132 -13 c4 -6 -7 -10 -25 -10 -25 0 -31 -4 -26 -15 4 -13 2 -14 -14 -5 -21
11 -25 22 -13 33 10 11 71 8 78 -3z m900 0 c-3 -5 -11 -10 -16 -10 -6 0 -7 5
-4 10 3 6 11 10 16 10 6 0 7 -4 4 -10z m-1555 -10 c0 -5 -7 -7 -15 -4 -8 4
-15 8 -15 10 0 2 7 4 15 4 8 0 15 -4 15 -10z m1757 4 c-3 -3 -12 -4 -19 -1 -8
3 -5 6 6 6 11 1 17 -2 13 -5z m-1297 -13 c0 -5 -7 -11 -14 -14 -10 -4 -13 -1
-9 9 6 15 23 19 23 5z m2090 -1 c0 -5 -4 -10 -10 -10 -5 0 -10 5 -10 10 0 6 5
10 10 10 6 0 10 -4 10 -10z m128 4 c-10 -10 -88 -13 -88 -3 0 5 21 9 47 9 25
0 44 -3 41 -6z m265 -1 c-13 -2 -33 -2 -45 0 -13 2 -3 4 22 4 25 0 35 -2 23
-4z m100 0 c-13 -2 -33 -2 -45 0 -13 2 -3 4 22 4 25 0 35 -2 23 -4z m228 -49
c21 -24 22 -26 3 -16 -25 13 -50 42 -37 42 5 0 20 -12 34 -26z m-2346 -83 c3
-5 1 -12 -5 -16 -5 -3 -10 1 -10 9 0 18 6 21 15 7z m2470 -42 c5 -16 13 -20
31 -16 13 2 24 0 24 -4 0 -5 -21 -9 -47 -8 -33 0 -42 3 -29 8 14 5 16 10 8 15
-14 9 -16 26 -3 26 5 0 13 -9 16 -21z m176 4 c12 -16 12 -17 -1 -6 -8 6 -26
13 -40 16 l-25 4 26 2 c15 0 33 -7 40 -16z m-3316 -33 c-3 -5 -12 -10 -18 -10
-7 0 -6 4 3 10 19 12 23 12 15 0z m170 3 c-11 -3 -25 -13 -32 -22 -11 -14 -14
-14 -22 -1 -15 22 -4 30 37 29 22 -1 29 -3 17 -6z m3148 0 c-13 -2 -33 -2 -45
0 -13 2 -3 4 22 4 25 0 35 -2 23 -4z m-1583 -43 c0 -5 -7 -10 -15 -10 -8 0
-15 5 -15 10 0 6 7 10 15 10 8 0 15 -4 15 -10z m1470 -25 c0 -8 -9 -15 -19
-15 -10 0 -21 7 -25 15 -4 11 1 15 19 15 16 0 25 -6 25 -15z m-3070 -4 c0 -10
-26 -9 -36 2 -4 4 2 7 14 7 12 0 22 -4 22 -9z m1448 -38 c-4 -22 -22 -20 -26
1 -2 10 3 16 13 16 10 0 15 -7 13 -17z m550 10 c-10 -2 -28 -2 -40 0 -13 2 -5
4 17 4 22 1 32 -1 23 -4z m-2100 -20 c-10 -2 -28 -2 -40 0 -13 2 -5 4 17 4 22
1 32 -1 23 -4z m16 -35 c9 -35 8 -38 -14 -38 -25 0 -44 32 -28 48 19 19 35 14
42 -10z m2374 -37 c-15 -5 -21 7 -13 26 7 17 8 17 15 -2 4 -11 3 -22 -2 -24z
m-1528 -16 c0 -8 -5 -15 -11 -15 -5 0 -8 4 -4 9 3 5 -3 12 -12 14 -14 4 -13 5
5 6 13 1 22 -5 22 -14z m1113 -32 c-7 -2 -19 -2 -25 0 -7 3 -2 5 12 5 14 0 19
-2 13 -5z m80 0 c-7 -2 -19 -2 -25 0 -7 3 -2 5 12 5 14 0 19 -2 13 -5z m725 0
c-10 -2 -26 -2 -35 0 -10 3 -2 5 17 5 19 0 27 -2 18 -5z m-1245 -20 c-13 -2
-33 -2 -45 0 -13 2 -3 4 22 4 25 0 35 -2 23 -4z m440 -30 c-7 -2 -19 -2 -25 0
-7 3 -2 5 12 5 14 0 19 -2 13 -5z m90 0 c-7 -2 -21 -2 -30 0 -10 3 -4 5 12 5
17 0 24 -2 18 -5z m-1896 -19 c-3 -3 -12 -4 -19 -1 -8 3 -5 6 6 6 11 1 17 -2
13 -5z m493 -45 c0 -5 -9 -9 -20 -9 -22 0 -27 16 -7 23 15 5 27 -1 27 -14z
m47 15 c-3 -3 -12 -4 -19 -1 -8 3 -5 6 6 6 11 1 17 -2 13 -5z m910 -70 c-3 -3
-12 -4 -19 -1 -8 3 -5 6 6 6 11 1 17 -2 13 -5z m-1134 -21 c-7 -2 -21 -2 -30
0 -10 3 -4 5 12 5 17 0 24 -2 18 -5z m527 -69 c3 -5 -12 -10 -32 -12 -26 -2
-38 1 -38 10 0 15 62 17 70 2z m-313 0 c-3 -3 -12 -4 -19 -1 -8 3 -5 6 6 6 11
1 17 -2 13 -5z m790 -20 c-3 -3 -12 -4 -19 -1 -8 3 -5 6 6 6 11 1 17 -2 13 -5z
m-837 -86 c0 -4 -9 -8 -20 -8 -11 0 -20 4 -20 8 0 4 9 8 20 8 11 0 20 -4 20
-8z m373 -15 c-7 -2 -19 -2 -25 0 -7 3 -2 5 12 5 14 0 19 -2 13 -5z m-343 -27
c0 -2 -8 -10 -17 -17 -16 -13 -17 -12 -4 4 13 16 21 21 21 13z m347 -52 c-2
-2 -12 -1 -22 3 -18 6 -18 7 1 13 17 7 33 -5 21 -16z m-334 9 c-7 -2 -19 -2
-25 0 -7 3 -2 5 12 5 14 0 19 -2 13 -5z m462 -33 c3 -5 1 -10 -4 -10 -6 0 -11
5 -11 10 0 6 2 10 4 10 3 0 8 -4 11 -10z m-715 -24 c0 -2 -9 -6 -20 -9 -11 -3
-20 -1 -20 4 0 5 9 9 20 9 11 0 20 -2 20 -4z m307 -2 c-3 -3 -12 -4 -19 -1 -8
3 -5 6 6 6 11 1 17 -2 13 -5z m260 -36 c-3 -8 -6 -5 -6 6 -1 11 2 17 5 13 3
-3 4 -12 1 -19z m-640 -90 c-3 -7 -5 -2 -5 12 0 14 2 19 5 13 2 -7 2 -19 0
-25z m943 -8 c0 -11 -4 -20 -10 -20 -5 0 -10 9 -10 20 0 11 5 20 10 20 6 0 10
-9 10 -20z m-153 -12 c-3 -8 -6 -5 -6 6 -1 11 2 17 5 13 3 -3 4 -12 1 -19z
m43 2 c0 -5 -2 -10 -4 -10 -3 0 -8 5 -11 10 -3 6 -1 10 4 10 6 0 11 -4 11 -10z
m-230 -231 c0 -5 -7 -9 -15 -9 -15 0 -20 12 -9 23 8 8 24 -1 24 -14z m1437
-175 c24 -18 28 -28 26 -65 -4 -68 -4 -71 3 -114 5 -34 2 -43 -21 -65 -25 -24
-33 -25 -166 -28 l-139 -4 0 152 0 152 134 -4 c119 -3 138 -6 163 -24z m123
-99 l0 -125 100 0 100 0 0 -25 0 -25 -125 0 -125 0 0 150 0 150 25 0 25 0 0
-125z m442 108 c14 -16 125 -202 157 -260 11 -21 10 -23 -18 -23 -25 0 -35 8
-57 45 l-26 45 -69 0 -69 0 12 25 c9 20 18 25 50 25 21 0 38 3 38 6 0 11 -41
74 -48 74 -4 0 -36 -50 -72 -110 -61 -104 -66 -110 -97 -110 l-33 0 81 133
c88 143 106 167 124 167 7 0 19 -8 27 -17z m498 -8 l0 -25 -104 0 c-95 0 -105
-2 -129 -24 -30 -28 -42 -65 -33 -102 4 -14 19 -37 33 -50 24 -22 34 -24 129
-24 l104 0 0 -25 c0 -25 0 -25 -97 -25 -130 1 -175 20 -204 86 -37 83 -1 181
74 203 18 5 76 10 130 10 l97 1 0 -25z m90 -125 l0 -150 -25 0 -25 0 0 150 0
150 25 0 25 0 0 -150z m161 74 l-90 -76 90 -74 91 -74 -39 0 c-33 0 -49 10
-120 70 -46 39 -83 74 -83 79 0 5 37 41 83 80 70 60 87 70 120 71 l39 0 -91
-76z"/>
<path d="M4210 1560 l0 -100 104 0 c82 0 108 3 120 16 9 8 16 17 16 19 0 2 -7
11 -16 19 -12 12 -36 16 -100 16 -83 0 -84 0 -84 25 0 25 1 25 83 25 71 0 87
3 102 20 17 19 17 21 0 40 -16 18 -31 20 -122 20 l-103 0 0 -100z"/>
</g>
</svg>
